<?xml version="1.0" encoding="utf-8"?>
<!-- Generator: Adobe Illustrator 19.2.1, SVG Export Plug-In . SVG Version: 6.00 Build 0)  -->
<svg version="1.1" id="Layer_1" xmlns="http://www.w3.org/2000/svg" xmlns:xlink="http://www.w3.org/1999/xlink" x="0px" y="0px"
	 viewBox="0 0 408 189" style="enable-background:new 0 0 408 189;" xml:space="preserve">
<style type="text/css">
	.st0{fill:#FF1270;}
	.st1{fill:#FFFFFF;}
</style>
<g>
	<path class="st0" d="M157.5,29.7c-0.1,0.4-0.5,0.8-0.9,0.8h-3.2c-0.4,0-0.8-0.3-0.9-0.7l-0.8-5.2c-0.1-0.9-0.2-2.6-0.2-2.6h-0.8
		c0,0,0,1.7-0.2,2.6l-0.8,5.2c-0.1,0.4-0.5,0.7-0.9,0.7h-3.2c-0.4,0-0.9-0.3-0.9-0.8l-0.9-7.3c0-0.1,0-6.3,0-6.3c0-0.5,0.4-1,0.9-1
		h1.2c0.5,0,0.9,0.4,0.9,0.9v6l0.1,3.2c0.1,0.9,0,1.9,0,1.9h0.8c0,0,0.1-0.9,0.2-1.9l0.8-5.5c0.1-0.5,0.4-0.9,0.9-0.9h2.6
		c0.5,0,0.8,0.4,0.9,0.9l0.8,5.5c0.1,0.9,0.2,1.9,0.2,1.9h0.8c0,0,0-0.9,0-1.9L155,22v-6c0-0.5,0.4-0.9,0.9-0.9h1.2
		c0.5,0,0.9,0.5,0.9,1c0,0,0,6.2,0,6.3L157.5,29.7z"/>
	<path class="st0" d="M171.7,24.3h-7.1v1.2c0,1.2,1,2.2,2.1,2.2h0.6c1.5,0,2-1.4,2.1-1.6c0.1-0.5,0.6-0.8,1.1-0.6l1.2,0.3
		c0.5,0.1,0.8,0.7,0.7,1.1c-0.6,2.2-2.6,3.9-5,3.9h-0.6c-2.9,0-5.2-2.3-5.2-5.2V20c0-2.9,2.3-5.2,5.2-5.2h0.6c2.9,0,5.2,2.3,5.2,5.2
		v3.4C172.6,23.9,172.2,24.3,171.7,24.3z M169.6,20c0-1.2-1-2.1-2.1-2.1h-0.6c-1.2,0-2.1,1-2.1,2.1v1.2h4.9L169.6,20L169.6,20z"/>
	<path class="st0" d="M188.9,30.5h-11.4c-0.5,0-0.9-0.4-0.9-0.9v-1.2c0-0.5,0.4-0.9,0.9-0.9h4.6V12.1h-3.4c-0.5,0-0.9-0.4-0.9-0.9
		V9.9c0-0.5,0.4-0.9,0.9-0.9h5.5c0.5,0,0.9,0.4,0.9,0.9v17.5h3.7c0.5,0,0.9,0.4,0.9,0.9v1.2C189.8,30.1,189.4,30.5,188.9,30.5z"/>
	<path class="st0" d="M199.7,30.8h-0.6c-2.9,0-5.2-2.3-5.2-5.2V20c0-2.9,2.3-5.2,5.2-5.2h0.6c2.9,0,5.2,2.3,5.2,5.2
		c0,0.5-0.4,0.9-0.9,0.9h-1.2c-0.5,0-0.9-0.4-0.9-0.9c0-1.2-1-2.1-2.1-2.1h-0.7c-1.2,0-2.1,1-2.1,2.1v5.5c0,1.2,1,2.2,2.1,2.2h0.6
		c1.2,0,2.1-1,2.1-2.2c0-0.5,0.4-0.9,0.9-0.9h1.2c0.5,0,0.9,0.4,0.9,0.9C204.9,28.5,202.6,30.8,199.7,30.8z"/>
	<path class="st0" d="M215.6,30.8H215c-2.9,0-5.2-2.3-5.2-5.2V20c0-2.9,2.3-5.2,5.2-5.2h0.6c2.9,0,5.2,2.3,5.2,5.2v5.5
		C220.8,28.5,218.5,30.8,215.6,30.8z M217.8,20c0-1.2-1-2.1-2.1-2.1h-0.6c-1.2,0-2.1,1-2.1,2.1v5.5c0,1.2,1,2.2,2.1,2.2h0.6
		c1.2,0,2.1-1,2.1-2.2L217.8,20L217.8,20z"/>
	<path class="st0" d="M237.1,30.5h-1.2c-0.5,0-0.9-0.4-0.9-0.9V18.8c0-0.5-0.4-0.9-0.9-0.9h-0.3c-0.5,0-0.9,0.4-0.9,0.9v10.8
		c0,0.5-0.4,0.9-0.9,0.9h-1.2c-0.5,0-0.9-0.4-0.9-0.9V18.8c0-0.5-0.4-0.9-0.9-0.9h-0.3c-0.5,0-0.9,0.4-0.9,0.9v10.7
		c0,0.5-0.4,0.9-0.9,0.9h-1.2c-0.5,0-0.9-0.4-0.9-0.9V16c0-0.5,0.4-0.9,0.9-0.9h1.2c0.1,0,0.1,0,0.2,0c0.5-0.2,1-0.3,1.6-0.3h0.3
		c0.9,0,1.8,0.3,2.5,0.8c0.7-0.5,1.5-0.8,2.5-0.8h0.3c2.2,0,4,1.8,4,4v10.7C238,30.1,237.6,30.5,237.1,30.5z"/>
	<path class="st0" d="M251.8,24.3h-7.1v1.2c0,1.2,1,2.2,2.1,2.2h0.6c1.5,0,2-1.4,2.1-1.6c0.1-0.5,0.6-0.8,1.1-0.6l1.2,0.3
		c0.5,0.1,0.8,0.7,0.7,1.1c-0.6,2.2-2.6,3.9-5,3.9h-0.6c-2.9,0-5.2-2.3-5.2-5.2V20c0-2.9,2.3-5.2,5.2-5.2h0.6c2.9,0,5.2,2.3,5.2,5.2
		v3.4C252.7,23.9,252.3,24.3,251.8,24.3z M249.6,20c0-1.2-1-2.1-2.1-2.1h-0.6c-1.2,0-2.1,1-2.1,2.1v1.2h4.9L249.6,20L249.6,20z"/>
</g>
<g>
	<g>
		<path class="st1" d="M99,102.9h-7.2L86,68.3h-0.1L80,102.9h-7.2l-7.9-53.4H73l3.8,33.9H77l6-33.9h5.8L95,84.2h0.1l3.7-34.7h8.1
			L99,102.9z"/>
		<path class="st1" d="M118.5,49.5h22.8v7.2h-15.1v15.7h13.2v7.2h-13.2v15.7h15.1v7.6h-22.8L118.5,49.5L118.5,49.5z"/>
		<path class="st1" d="M178.7,56.7h-8.8v-7.2h25.3v7.2h-8.8v46.2h-7.6L178.7,56.7L178.7,56.7z"/>
		<path class="st1" d="M205.3,49.5h7.6v22.9h9.4V49.5h7.6v53.4h-7.6V79.1H213v23.8h-7.6L205.3,49.5L205.3,49.5z"/>
		<path class="st1" d="M244.2,49.5h7.6v53.4h-7.6V49.5z"/>
		<path class="st1" d="M265.8,49.5h7.3l11.5,32.2h0.2V49.5h7.6v53.4h-7.2l-11.7-32.1h-0.2v32.1h-7.6V49.5H265.8z"/>
		<path class="st1" d="M306.1,49.5h7.6v24.4h0.2l11.2-24.4h7.6l-10.4,21.4l12.4,32h-8.1l-8.7-23.7l-4.1,7.7v16h-7.6V49.5H306.1z"/>
		<path class="st1" d="M39.9,129.7h-8.8v-7.2h25.3v7.2h-8.8v46.2H40L39.9,129.7L39.9,129.7z"/>
		<path class="st1" d="M66.6,122.5h7.6v22.9h9.4v-22.9h7.6v53.4h-7.6v-23.8h-9.4v23.8h-7.6V122.5z"/>
		<path class="st1" d="M105.2,122.5H128v7.2h-15.1v15.7h13.2v7.2h-13.2v15.7H128v7.6h-22.8V122.5z"/>
		<path class="st1" d="M160.4,122.5h22.8v7.2h-15.1v16.2h13.2v7.2h-13.2v22.8h-7.6L160.4,122.5L160.4,122.5z"/>
		<path class="st1" d="M219.7,163.9c0,7-5.5,12.4-12.4,12.4s-12.4-5.5-12.4-12.4v-41.4h7.6v40.6c0,3.7,2,5.5,4.7,5.5
			s4.7-1.8,4.7-5.5v-40.6h7.6v41.4H219.7z"/>
		<path class="st1" d="M238.6,129.7h-8.8v-7.2h25.3v7.2h-8.8v46.2h-7.6L238.6,129.7L238.6,129.7z"/>
		<path class="st1" d="M290,163.9c0,7-5.5,12.4-12.4,12.4c-6.8,0-12.4-5.5-12.4-12.4v-41.4h7.6v40.6c0,3.7,2,5.5,4.7,5.5
			s4.7-1.8,4.7-5.5v-40.6h7.6v41.4H290z"/>
		<path class="st1" d="M304,122.5h12.3c9.1,0,13.5,5.3,13.5,15.7c0,6.1-1.7,10.6-6.6,13.3l8.2,24.4h-8.1l-7.1-22.8h-4.6v22.8H304
			V122.5z M311.6,146.4h4.3c5.3,0,6.1-3,6.1-8.3c0-5.4-0.9-8.3-6.5-8.3h-4v16.6H311.6z"/>
		<path class="st1" d="M342.7,122.5h22.8v7.2h-15.1v15.7h13.2v7.2h-13.2v15.7h15.1v7.6h-22.8V122.5z"/>
	</g>
</g>
</svg>
