<?xml version="1.0" encoding="utf-8"?>
<!-- Generator: Adobe Illustrator 19.2.1, SVG Export Plug-In . SVG Version: 6.00 Build 0)  -->
<svg version="1.1" id="Layer_1" xmlns="http://www.w3.org/2000/svg" xmlns:xlink="http://www.w3.org/1999/xlink" x="0px" y="0px"
	 viewBox="0 0 433.3 185.4" style="enable-background:new 0 0 433.3 185.4;" xml:space="preserve">
<style type="text/css">
	.st0{fill:#FF1270;}
	.st1{fill:#FFFFFF;}
</style>
<g>
	<path class="st0" d="M157.2,11.3h3.5l2.9,11.2h0.1l2.8-11.2h3.3l2.7,11.2h0.1l3-11.2h3.4l-4.7,15h-3.4l-2.8-11.1H168l-2.8,11.1
		h-3.5L157.2,11.3z"/>
	<path class="st0" d="M183.6,19.7c0,0.6,0.1,1.1,0.2,1.7s0.4,1,0.7,1.4s0.7,0.7,1.2,1c0.5,0.2,1.1,0.4,1.8,0.4c1,0,1.7-0.2,2.3-0.6
		s1-1,1.3-1.9h3.1c-0.2,0.8-0.5,1.5-0.9,2.2s-0.9,1.2-1.5,1.6s-1.3,0.8-2,1s-1.5,0.3-2.3,0.3c-1.2,0-2.2-0.2-3.1-0.6
		c-0.9-0.4-1.7-0.9-2.3-1.6s-1.1-1.5-1.4-2.5c-0.3-1-0.5-2-0.5-3.2c0-1.1,0.2-2.1,0.5-3c0.3-1,0.8-1.8,1.4-2.5
		c0.6-0.7,1.4-1.3,2.3-1.7c0.9-0.4,1.9-0.6,3-0.6c1.2,0,2.2,0.2,3.2,0.7c0.9,0.5,1.7,1.1,2.3,2c0.6,0.8,1.1,1.7,1.3,2.8
		c0.3,1.1,0.4,2.1,0.2,3.3h-10.8V19.7z M191.3,17.5c0-0.5-0.2-1-0.3-1.5c-0.2-0.5-0.4-0.9-0.8-1.3c-0.3-0.4-0.7-0.6-1.2-0.9
		c-0.5-0.2-1-0.3-1.5-0.3c-0.6,0-1.1,0.1-1.6,0.3s-0.9,0.5-1.2,0.8c-0.3,0.4-0.6,0.8-0.8,1.3c-0.2,0.5-0.3,1-0.3,1.6H191.3z"/>
	<path class="st0" d="M197.2,5.6h3.3v20.7h-3.3V5.6z"/>
	<path class="st0" d="M214,16.3c-0.1-0.9-0.5-1.6-1.1-2.1s-1.4-0.7-2.3-0.7c-0.4,0-0.9,0.1-1.4,0.2c-0.5,0.1-0.9,0.4-1.3,0.8
		c-0.4,0.4-0.7,0.9-1,1.7c-0.3,0.7-0.4,1.6-0.4,2.8c0,0.6,0.1,1.2,0.2,1.9c0.1,0.6,0.4,1.2,0.7,1.7s0.7,0.9,1.2,1.2
		c0.5,0.3,1.1,0.4,1.8,0.4c1,0,1.8-0.3,2.4-0.9c0.6-0.6,1-1.4,1.2-2.5h3.3c-0.3,2-1,3.4-2.2,4.5c-1.2,1-2.7,1.5-4.6,1.5
		c-1.2,0-2.2-0.2-3.1-0.6c-0.9-0.4-1.7-0.9-2.3-1.6s-1.1-1.5-1.4-2.4c-0.3-0.9-0.5-2-0.5-3.1s0.2-2.2,0.5-3.2s0.8-1.8,1.4-2.6
		c0.6-0.7,1.4-1.3,2.3-1.7c0.9-0.4,2-0.6,3.2-0.6c0.9,0,1.7,0.1,2.5,0.3s1.5,0.6,2.1,1s1.1,1,1.5,1.7s0.6,1.5,0.7,2.4H214V16.3z"/>
	<path class="st0" d="M226.9,26.7c-1.2,0-2.3-0.2-3.2-0.6s-1.7-0.9-2.4-1.6c-0.6-0.7-1.1-1.5-1.5-2.5c-0.3-1-0.5-2-0.5-3.2
		c0-1.1,0.2-2.2,0.5-3.2s0.8-1.8,1.5-2.5c0.6-0.7,1.4-1.2,2.4-1.6c0.9-0.4,2-0.6,3.2-0.6s2.3,0.2,3.2,0.6c0.9,0.4,1.7,0.9,2.4,1.6
		c0.6,0.7,1.1,1.5,1.5,2.5s0.5,2,0.5,3.2S234.3,21,234,22s-0.8,1.8-1.5,2.5c-0.6,0.7-1.4,1.2-2.4,1.6S228.1,26.7,226.9,26.7z
		 M226.9,24.1c0.7,0,1.4-0.2,1.9-0.5s1-0.7,1.3-1.2s0.6-1.1,0.8-1.7s0.2-1.3,0.2-1.9s-0.1-1.3-0.2-1.9s-0.4-1.2-0.8-1.7
		c-0.3-0.5-0.8-0.9-1.3-1.2s-1.2-0.5-1.9-0.5s-1.4,0.2-1.9,0.5s-1,0.7-1.3,1.2s-0.6,1.1-0.8,1.7s-0.2,1.3-0.2,1.9
		c0,0.7,0.1,1.3,0.2,1.9c0.2,0.6,0.4,1.2,0.8,1.7c0.3,0.5,0.8,0.9,1.3,1.2C225.5,23.9,226.1,24.1,226.9,24.1z"/>
	<path class="st0" d="M237.2,11.3h3.1v2.1h0.1c0.3-0.4,0.5-0.7,0.8-1s0.6-0.6,1-0.8s0.8-0.4,1.2-0.5c0.5-0.1,1-0.2,1.6-0.2
		c0.9,0,1.8,0.2,2.5,0.6c0.8,0.4,1.3,1,1.7,1.9c0.6-0.8,1.2-1.4,1.9-1.8c0.7-0.4,1.7-0.7,2.8-0.7c1.6,0,2.8,0.4,3.7,1.2
		c0.9,0.8,1.3,2.1,1.3,3.9v10.3h-3.3v-8.7c0-0.6,0-1.1-0.1-1.6c0-0.5-0.1-0.9-0.3-1.3s-0.5-0.6-0.8-0.8c-0.4-0.2-0.9-0.3-1.5-0.3
		c-1.1,0-1.9,0.3-2.4,1s-0.8,1.7-0.8,3v8.8h-3.3v-9.6c0-1-0.2-1.8-0.6-2.4c-0.4-0.5-1.1-0.8-2.1-0.8c-0.4,0-0.8,0.1-1.2,0.3
		s-0.7,0.4-1,0.8c-0.3,0.3-0.5,0.7-0.7,1.2s-0.3,1-0.3,1.7v8.9h-3.3L237.2,11.3L237.2,11.3z"/>
	<path class="st0" d="M265,19.7c0,0.6,0.1,1.1,0.2,1.7c0.2,0.5,0.4,1,0.7,1.4c0.3,0.4,0.7,0.7,1.2,1c0.5,0.2,1.1,0.4,1.8,0.4
		c1,0,1.7-0.2,2.3-0.6c0.6-0.4,1-1,1.3-1.9h3.1c-0.2,0.8-0.5,1.5-0.9,2.2c-0.4,0.6-0.9,1.2-1.5,1.6s-1.3,0.8-2,1s-1.5,0.3-2.3,0.3
		c-1.2,0-2.2-0.2-3.1-0.6s-1.7-0.9-2.3-1.6c-0.6-0.7-1.1-1.5-1.4-2.5s-0.5-2-0.5-3.2c0-1.1,0.2-2.1,0.5-3s0.8-1.8,1.4-2.5
		s1.4-1.3,2.3-1.7s1.9-0.6,3-0.6c1.2,0,2.2,0.2,3.2,0.7c0.9,0.5,1.7,1.1,2.3,2s1.1,1.7,1.3,2.8s0.4,2.1,0.2,3.3H265V19.7z
		 M272.7,17.5c0-0.5-0.1-1-0.3-1.5s-0.4-0.9-0.8-1.3s-0.7-0.6-1.2-0.9c-0.5-0.2-1-0.3-1.5-0.3c-0.6,0-1.1,0.1-1.6,0.3
		s-0.9,0.5-1.2,0.8c-0.3,0.4-0.6,0.8-0.8,1.3c-0.2,0.5-0.3,1-0.3,1.6H272.7z"/>
</g>
<g>
	<g>
		<path class="st1" d="M62.1,48.2L68,87.7h0.1l6.3-39.6h10.3L91,87.7h0.1L97,48.1h10.3l-9.7,53.5H85.7l-6-38.8h-0.1l-6,38.8H61.5
			l-9.7-53.5h10.3V48.2z"/>
		<path class="st1" d="M148.6,57h-19.1v12.6h18v8.8h-18v14.4h19.9v8.8h-30.7V48.2h29.9L148.6,57L148.6,57z"/>
		<path class="st1" d="M210.4,57h-11.7v44.7h-10.8V57h-11.7v-8.8h34.2V57z"/>
		<path class="st1" d="M232.6,48.2v20.5h12.6V48.2H256v53.5h-10.8V77.9h-12.6v23.8h-10.8V48.2H232.6z"/>
		<path class="st1" d="M270.7,48.2h10.8v53.5h-10.8V48.2z"/>
		<path class="st1" d="M321.8,84.8h0.2V48.2h9.9v53.5h-12.3l-13.2-37.5h-0.2v37.5h-9.9V48.2h12.4L321.8,84.8z"/>
		<path class="st1" d="M356.9,69.6h0.1l13.6-21.4h11.7l-14.5,22.9l16.2,30.6h-12.1l-11-22l-4,6.1v15.9h-10.8V48.2h10.8L356.9,69.6
			L356.9,69.6z"/>
		<path class="st1" d="M43.6,130H31.9v44.7H21.1V130H9.4v-8.8h34.2V130z"/>
		<path class="st1" d="M65.8,121.2v20.5h12.6v-20.5h10.8v53.5H78.4v-23.8H65.8v23.8H55v-53.5H65.8z"/>
		<path class="st1" d="M133.4,130h-19.1v12.6h18v8.8h-18v14.4h19.9v8.8h-30.7v-53.5h29.9L133.4,130L133.4,130z"/>
		<path class="st1" d="M196,121.2v8.8h-19.1v12.6h18v8.8h-18v23.2h-10.8v-53.5L196,121.2L196,121.2z"/>
		<path class="st1" d="M217.7,158.5c0,1.3,0.1,2.6,0.3,3.7c0.2,1.1,0.5,2.1,1,2.9c0.5,0.8,1.1,1.5,1.9,1.9c0.8,0.5,1.9,0.7,3.1,0.7
			c1.3,0,2.3-0.2,3.1-0.7s1.4-1.1,1.9-1.9c0.5-0.8,0.8-1.8,1-2.9c0.2-1.1,0.3-2.4,0.3-3.7v-37.3h10.8v37.3c0,3.4-0.5,6.2-1.4,8.4
			c-1,2.2-2.2,4-3.8,5.3s-3.4,2.2-5.5,2.6c-2.1,0.4-4.2,0.7-6.4,0.7s-4.3-0.2-6.4-0.6c-2.1-0.4-3.9-1.2-5.5-2.4s-2.9-3-3.8-5.2
			c-1-2.2-1.4-5.2-1.4-8.8v-37.3h10.8L217.7,158.5L217.7,158.5z"/>
		<path class="st1" d="M286,130h-11.7v44.7h-10.8V130h-11.7v-8.8H286V130z"/>
		<path class="st1" d="M307.5,158.5c0,1.3,0.1,2.6,0.3,3.7c0.2,1.1,0.5,2.1,1,2.9c0.5,0.8,1.1,1.5,1.9,1.9c0.8,0.5,1.9,0.7,3.1,0.7
			c1.3,0,2.3-0.2,3.1-0.7c0.8-0.5,1.4-1.1,1.9-1.9c0.5-0.8,0.8-1.8,1-2.9c0.2-1.1,0.3-2.4,0.3-3.7v-37.3h10.8v37.3
			c0,3.4-0.5,6.2-1.4,8.4c-1,2.2-2.2,4-3.8,5.3c-1.6,1.3-3.4,2.2-5.5,2.6c-2.1,0.4-4.2,0.7-6.4,0.7c-2.2,0-4.3-0.2-6.4-0.6
			c-2.1-0.4-3.9-1.2-5.5-2.4s-2.9-3-3.8-5.2c-1-2.2-1.4-5.2-1.4-8.8v-37.3h10.8V158.5z"/>
		<path class="st1" d="M364.4,121.2c4.5,0,8,1.1,10.5,3.4s3.8,5.7,3.8,10.4c0,3.6-0.7,6.5-2.2,8.8s-3.7,3.7-6.7,4.4v0.2
			c2.7,0.4,4.7,1.3,5.9,2.6c1.2,1.3,2,3.5,2.3,6.5c0.1,1,0.2,2.1,0.2,3.3s0.1,2.5,0.2,3.9c0.1,2.8,0.2,5,0.4,6.5
			c0.3,1.5,0.9,2.5,2,3.1v0.5h-11.7c-0.6-0.8-0.9-1.6-1-2.6c-0.2-1-0.3-2-0.3-3l-0.3-10.3c-0.1-2.1-0.6-3.7-1.6-4.9
			s-2.5-1.8-4.8-1.8h-5.8v22.6h-10.8v-53.5h19.9V121.2z M359.8,144.6c2.6,0,4.6-0.6,6-1.8s2.1-3.3,2.1-6.2c0-4.9-2.5-7.4-7.5-7.4
			h-5.1v15.4H359.8z"/>
		<path class="st1" d="M422.8,130h-19.1v12.6h18v8.8h-18v14.4h19.9v8.8h-30.7v-53.5h29.9L422.8,130L422.8,130z"/>
	</g>
</g>
</svg>
